<svg width="170" height="170" viewBox="0 0 170 170" fill="none" xmlns="http://www.w3.org/2000/svg">
<mask id="mask0_27_3271" style="mask-type:alpha" maskUnits="userSpaceOnUse" x="0" y="0" width="170" height="170">
<rect x="0.922607" y="0.996094" width="168.119" height="168.119" rx="84.0594" fill="#C4C4C4"/>
</mask>
<g mask="url(#mask0_27_3271)">
<path d="M54.9042 110.978H17.325V168.725H54.9042V110.978Z" fill="#0A3A67"/>
<path opacity="0.6" d="M48.5589 110.973H17.3225V168.725H48.5589V110.973Z" fill="white"/>
<path opacity="0.3" d="M54.9071 110.973H48.5583V168.725H54.9071V110.973Z" fill="white"/>
<path d="M26.8237 113.911H20.0088V120.726H26.8237V113.911Z" fill="#0A3A67"/>
<path d="M36.3459 113.911H29.531V120.726H36.3459V113.911Z" fill="#0A3A67"/>
<path d="M45.8771 113.911H39.0623V120.726H45.8771V113.911Z" fill="#0A3A67"/>
<path d="M26.8237 122.791H20.0088V129.606H26.8237V122.791Z" fill="#0A3A67"/>
<path d="M36.3459 122.791H29.531V129.606H36.3459V122.791Z" fill="#0A3A67"/>
<path d="M45.8771 122.791H39.0623V129.606H45.8771V122.791Z" fill="#0A3A67"/>
<path d="M26.8237 131.671H20.0088V138.486H26.8237V131.671Z" fill="#0A3A67"/>
<path d="M36.3459 131.671H29.531V138.486H36.3459V131.671Z" fill="#0A3A67"/>
<path d="M45.8771 131.671H39.0623V138.486H45.8771V131.671Z" fill="#0A3A67"/>
<path d="M26.8237 140.551H20.0088V147.366H26.8237V140.551Z" fill="#0A3A67"/>
<path d="M36.3459 140.551H29.531V147.366H36.3459V140.551Z" fill="#0A3A67"/>
<path d="M45.8771 140.551H39.0623V147.366H45.8771V140.551Z" fill="#0A3A67"/>
<path d="M26.8237 149.431H20.0088V156.246H26.8237V149.431Z" fill="#0A3A67"/>
<path d="M36.3459 149.431H29.531V156.246H36.3459V149.431Z" fill="#0A3A67"/>
<path d="M45.8771 149.431H39.0623V156.246H45.8771V149.431Z" fill="#0A3A67"/>
<path d="M26.8237 160.671H20.0088V168.725H26.8237V160.671Z" fill="#0A3A67"/>
<path d="M36.3459 158.311H29.531V168.725H36.3459V158.311Z" fill="#0A3A67"/>
<path d="M45.8771 160.671H39.0623V168.725H45.8771V160.671Z" fill="#0A3A67"/>
<path opacity="0.4" d="M26.8235 113.911H20.5691V120.726H26.8235V113.911Z" fill="white"/>
<path opacity="0.4" d="M36.3501 113.911H30.0957V120.726H36.3501V113.911Z" fill="white"/>
<path opacity="0.4" d="M45.8811 113.911H39.6267V120.726H45.8811V113.911Z" fill="white"/>
<path opacity="0.4" d="M26.8235 122.791H20.5691V129.606H26.8235V122.791Z" fill="white"/>
<path opacity="0.4" d="M36.3501 122.791H30.0957V129.606H36.3501V122.791Z" fill="white"/>
<path opacity="0.4" d="M45.8811 122.791H39.6267V129.606H45.8811V122.791Z" fill="white"/>
<path opacity="0.4" d="M26.8235 131.671H20.5691V138.486H26.8235V131.671Z" fill="white"/>
<path opacity="0.4" d="M36.3501 131.671H30.0957V138.486H36.3501V131.671Z" fill="white"/>
<path opacity="0.4" d="M45.8811 131.671H39.6267V138.486H45.8811V131.671Z" fill="white"/>
<path opacity="0.4" d="M26.8235 140.551H20.5691V147.366H26.8235V140.551Z" fill="white"/>
<path opacity="0.4" d="M36.3501 140.551H30.0957V147.366H36.3501V140.551Z" fill="white"/>
<path opacity="0.4" d="M45.8811 140.551H39.6267V147.366H45.8811V140.551Z" fill="white"/>
<path opacity="0.4" d="M26.8232 149.431H20.5688V156.246H26.8232V149.431Z" fill="white"/>
<path opacity="0.4" d="M36.3501 149.431H30.0957V156.246H36.3501V149.431Z" fill="white"/>
<path opacity="0.4" d="M45.8813 149.431H39.627V156.246H45.8813V149.431Z" fill="white"/>
<path opacity="0.4" d="M26.8235 160.671H20.5691V168.725H26.8235V160.671Z" fill="white"/>
<path opacity="0.4" d="M36.3501 158.311H30.0957V168.725H36.3501V158.311Z" fill="white"/>
<path opacity="0.4" d="M45.8811 160.671H39.6267V168.725H45.8811V160.671Z" fill="white"/>
<path d="M15.0396 108.477H61.3454L59.9706 111.409H16.4202L15.0396 108.477Z" fill="#0A3A67"/>
<path opacity="0.2" d="M49.2434 108.477H61.345L59.9702 111.409H48.5825L49.2434 108.477Z" fill="black"/>
<path d="M153.149 76.432H115.221V168.725H153.149V76.432Z" fill="#0A3A67"/>
<path opacity="0.4" d="M144.076 76.432H115.223V168.725H144.076V76.432Z" fill="white"/>
<path d="M154.925 73.6996H113.439V76.6438H154.925V73.6996Z" fill="#0A3A67"/>
<path opacity="0.2" d="M154.924 73.7006H144.08V76.6448H154.924V73.7006Z" fill="black"/>
<path opacity="0.3" d="M153.154 76.6439H144.08V168.725H153.154V76.6439Z" fill="white"/>
<path d="M123.997 80.1136H119.094V87.5422H123.997V80.1136Z" fill="#0A3A67"/>
<path opacity="0.2" d="M123.995 80.6034H119.092V87.5363H123.995V80.6034Z" fill="white"/>
<path d="M119.796 80.1136H119.094V87.5422H119.796V80.1136Z" fill="#0A3A67"/>
<path d="M131.718 80.1136H126.814V87.5422H131.718V80.1136Z" fill="#0A3A67"/>
<path opacity="0.2" d="M131.722 80.6034H126.819V87.5363H131.722V80.6034Z" fill="white"/>
<path d="M127.517 80.1136H126.814V87.5422H127.517V80.1136Z" fill="#0A3A67"/>
<path d="M139.443 80.1136H134.54V87.5422H139.443V80.1136Z" fill="#0A3A67"/>
<path opacity="0.2" d="M139.443 80.6034H134.54V87.5363H139.443V80.6034Z" fill="white"/>
<path d="M135.242 80.1136H134.54V87.5422H135.242V80.1136Z" fill="#0A3A67"/>
<path d="M123.997 91.3011H119.094V98.7297H123.997V91.3011Z" fill="#0A3A67"/>
<path opacity="0.2" d="M123.995 91.7904H119.092V98.7233H123.995V91.7904Z" fill="white"/>
<path d="M119.796 91.3011H119.094V98.7297H119.796V91.3011Z" fill="#0A3A67"/>
<path d="M131.718 91.3011H126.814V98.7297H131.718V91.3011Z" fill="#0A3A67"/>
<path opacity="0.2" d="M131.722 91.7904H126.819V98.7233H131.722V91.7904Z" fill="white"/>
<path d="M127.517 91.3011H126.814V98.7297H127.517V91.3011Z" fill="#0A3A67"/>
<path d="M139.443 91.3011H134.54V98.7297H139.443V91.3011Z" fill="#0A3A67"/>
<path opacity="0.2" d="M139.443 91.7904H134.54V98.7233H139.443V91.7904Z" fill="white"/>
<path d="M135.242 91.3011H134.54V98.7297H135.242V91.3011Z" fill="#0A3A67"/>
<path d="M123.997 102.482H119.094V109.91H123.997V102.482Z" fill="#0A3A67"/>
<path opacity="0.2" d="M123.995 102.978H119.092V109.911H123.995V102.978Z" fill="white"/>
<path d="M119.796 102.482H119.094V109.91H119.796V102.482Z" fill="#0A3A67"/>
<path d="M131.718 102.482H126.814V109.91H131.718V102.482Z" fill="#0A3A67"/>
<path opacity="0.2" d="M131.722 102.977H126.819V109.91H131.722V102.977Z" fill="white"/>
<path d="M127.517 102.482H126.814V109.91H127.517V102.482Z" fill="#0A3A67"/>
<path d="M139.443 102.482H134.54V109.91H139.443V102.482Z" fill="#0A3A67"/>
<path opacity="0.2" d="M139.443 102.977H134.54V109.91H139.443V102.977Z" fill="white"/>
<path d="M135.242 102.482H134.54V109.91H135.242V102.482Z" fill="#0A3A67"/>
<path d="M123.997 113.669H119.094V121.098H123.997V113.669Z" fill="#0A3A67"/>
<path opacity="0.2" d="M123.995 114.164H119.092V121.097H123.995V114.164Z" fill="white"/>
<path d="M119.796 113.669H119.094V121.098H119.796V113.669Z" fill="#0A3A67"/>
<path d="M131.718 113.669H126.814V121.098H131.718V113.669Z" fill="#0A3A67"/>
<path opacity="0.2" d="M131.722 114.164H126.819V121.097H131.722V114.164Z" fill="white"/>
<path d="M127.517 113.669H126.814V121.098H127.517V113.669Z" fill="#0A3A67"/>
<path d="M139.443 113.669H134.54V121.098H139.443V113.669Z" fill="#0A3A67"/>
<path opacity="0.2" d="M139.443 114.164H134.54V121.097H139.443V114.164Z" fill="white"/>
<path d="M135.242 113.669H134.54V121.098H135.242V113.669Z" fill="#0A3A67"/>
<path d="M123.997 124.856H119.094V132.284H123.997V124.856Z" fill="#0A3A67"/>
<path opacity="0.2" d="M123.995 125.347H119.092V132.279H123.995V125.347Z" fill="white"/>
<path d="M119.796 124.856H119.094V132.284H119.796V124.856Z" fill="#0A3A67"/>
<path d="M131.718 124.856H126.814V132.284H131.718V124.856Z" fill="#0A3A67"/>
<path opacity="0.2" d="M131.722 125.347H126.819V132.279H131.722V125.347Z" fill="white"/>
<path d="M127.517 124.856H126.814V132.284H127.517V124.856Z" fill="#0A3A67"/>
<path d="M139.443 124.856H134.54V132.284H139.443V124.856Z" fill="#0A3A67"/>
<path opacity="0.2" d="M139.443 125.347H134.54V132.279H139.443V125.347Z" fill="white"/>
<path d="M135.242 124.856H134.54V132.284H135.242V124.856Z" fill="#0A3A67"/>
<path d="M123.997 136.037H119.094V143.466H123.997V136.037Z" fill="#0A3A67"/>
<path opacity="0.2" d="M123.995 136.533H119.092V143.466H123.995V136.533Z" fill="white"/>
<path d="M119.796 136.037H119.094V143.466H119.796V136.037Z" fill="#0A3A67"/>
<path d="M131.718 136.037H126.814V143.466H131.718V136.037Z" fill="#0A3A67"/>
<path opacity="0.2" d="M131.722 136.533H126.819V143.466H131.722V136.533Z" fill="white"/>
<path d="M127.517 136.037H126.814V143.466H127.517V136.037Z" fill="#0A3A67"/>
<path d="M139.443 136.037H134.54V143.466H139.443V136.037Z" fill="#0A3A67"/>
<path opacity="0.2" d="M139.443 136.533H134.54V143.466H139.443V136.533Z" fill="white"/>
<path d="M135.242 136.037H134.54V143.466H135.242V136.037Z" fill="#0A3A67"/>
<path d="M123.997 147.224H119.094V154.653H123.997V147.224Z" fill="#0A3A67"/>
<path opacity="0.2" d="M123.995 147.72H119.092V154.653H123.995V147.72Z" fill="white"/>
<path d="M119.796 147.224H119.094V154.653H119.796V147.224Z" fill="#0A3A67"/>
<path d="M131.718 147.224H126.814V154.653H131.718V147.224Z" fill="#0A3A67"/>
<path opacity="0.2" d="M131.722 147.72H126.819V154.653H131.722V147.72Z" fill="white"/>
<path d="M127.517 147.224H126.814V154.653H127.517V147.224Z" fill="#0A3A67"/>
<path d="M139.443 147.224H134.54V154.653H139.443V147.224Z" fill="#0A3A67"/>
<path opacity="0.2" d="M139.443 147.72H134.54V154.653H139.443V147.72Z" fill="white"/>
<path d="M135.242 147.224H134.54V154.653H135.242V147.224Z" fill="#0A3A67"/>
<path d="M123.997 158.412H119.094V165.84H123.997V158.412Z" fill="#0A3A67"/>
<path opacity="0.2" d="M123.995 158.901H119.092V165.834H123.995V158.901Z" fill="white"/>
<path d="M119.796 158.412H119.094V165.84H119.796V158.412Z" fill="#0A3A67"/>
<path d="M131.718 158.412H126.814V165.84H131.718V158.412Z" fill="#0A3A67"/>
<path opacity="0.2" d="M131.722 158.901H126.819V165.834H131.722V158.901Z" fill="white"/>
<path d="M127.517 158.412H126.814V165.84H127.517V158.412Z" fill="#0A3A67"/>
<path d="M139.443 158.412H134.54V165.84H139.443V158.412Z" fill="#0A3A67"/>
<path opacity="0.2" d="M139.443 158.901H134.54V165.834H139.443V158.901Z" fill="white"/>
<path d="M135.242 158.412H134.54V165.84H135.242V158.412Z" fill="#0A3A67"/>
<path d="M73.2014 24.0961H72.3577V42.2691H73.2014V24.0961Z" fill="#152A45"/>
<path d="M91.5369 24.0961H90.6931V42.2691H91.5369V24.0961Z" fill="#152A45"/>
<path d="M107.401 32.3739H78.8962V47.4375H107.401V32.3739Z" fill="#0A3A67"/>
<path opacity="0.7" d="M107.405 32.3739H78.9006V47.4375H107.405V32.3739Z" fill="white"/>
<path d="M90.9174 32.3739H62.4128V47.4375H90.9174V32.3739Z" fill="#0A3A67"/>
<path opacity="0.4" d="M90.9237 32.3739H62.4192V47.4375H90.9237V32.3739Z" fill="white"/>
<path opacity="0.5" d="M59.7079 55.515H58.28V61.4154H59.7079V55.515Z" fill="white"/>
<path opacity="0.5" d="M59.7079 70.7504H58.28V76.6507H59.7079V70.7504Z" fill="white"/>
<path opacity="0.5" d="M59.7079 81.0638H58.28V86.9642H59.7079V81.0638Z" fill="white"/>
<path opacity="0.5" d="M59.7079 91.3837H58.28V97.284H59.7079V91.3837Z" fill="white"/>
<path opacity="0.5" d="M59.7079 101.697H58.28V107.598H59.7079V101.697Z" fill="white"/>
<path opacity="0.5" d="M59.7079 112.011H58.28V117.911H59.7079V112.011Z" fill="white"/>
<path opacity="0.5" d="M59.7079 123.381H58.28V129.281H59.7079V123.381Z" fill="white"/>
<path opacity="0.5" d="M59.7079 134.751H58.28V140.651H59.7079V134.751Z" fill="white"/>
<path opacity="0.5" d="M59.7079 146.115H58.28V152.015H59.7079V146.115Z" fill="white"/>
<path opacity="0.5" d="M59.7079 157.485H58.28V163.385H59.7079V157.485Z" fill="white"/>
<path d="M115.426 47.6555H70.8845V168.725H115.426V47.6555Z" fill="#0A3A67"/>
<path d="M98.9315 47.6555H54.3899V168.725H98.9315V47.6555Z" fill="#0A3A67"/>
<path opacity="0.3" d="M115.425 49.3201H98.9392V168.731H115.425V49.3201Z" fill="white"/>
<path opacity="0.5" d="M98.9315 47.6562H54.3899V168.725H98.9315V47.6562Z" fill="white"/>
<path d="M94.712 52.9491H89.2483V165.834H94.712V52.9491Z" fill="#0A3A67"/>
<path d="M84.1849 52.9491H78.7212V165.834H84.1849V52.9491Z" fill="#0A3A67"/>
<path d="M73.662 52.9491H68.1982V165.834H73.662V52.9491Z" fill="#0A3A67"/>
<path d="M63.1263 52.9491H57.6626V165.834H63.1263V52.9491Z" fill="#0A3A67"/>
<path opacity="0.2" d="M94.7076 54.3768H89.2439V165.834H94.7076V54.3768Z" fill="white"/>
<path opacity="0.2" d="M84.1893 54.3768H78.7256V165.834H84.1893V54.3768Z" fill="white"/>
<path opacity="0.2" d="M73.66 54.3768H68.1963V165.834H73.66V54.3768Z" fill="white"/>
<path opacity="0.2" d="M63.1263 54.3768H57.6626V165.834H63.1263V54.3768Z" fill="white"/>
<path d="M113.524 52.9491H111.235V165.834H113.524V52.9491Z" fill="#0A3A67"/>
<path d="M109.107 52.9491H106.817V165.834H109.107V52.9491Z" fill="#0A3A67"/>
<path d="M104.692 52.9491H102.402V165.834H104.692V52.9491Z" fill="#0A3A67"/>
<g opacity="0.3">
<g opacity="0.3">
<path opacity="0.4" d="M113.522 54.3763H111.233V165.834H113.522V54.3763Z" fill="white"/>
</g>
<g opacity="0.3">
<path opacity="0.4" d="M109.109 54.3763H106.82V165.834H109.109V54.3763Z" fill="white"/>
</g>
<g opacity="0.3">
<path opacity="0.4" d="M104.69 54.3763H102.4V165.834H104.69V54.3763Z" fill="white"/>
</g>
</g>
<path d="M114.47 44.2162H98.9348V46.4878H114.47V44.2162Z" fill="#0A3A67"/>
<path d="M114.473 43.662H54.3899V46.4882H114.473V43.662Z" fill="#F0F0F0"/>
<path d="M116.577 46.4935H53.1311V49.3198H116.577V46.4935Z" fill="#0A3A67"/>
<path d="M116.577 41.3901H53.1311V44.2163H116.577V41.3901Z" fill="#0A3A67"/>
<path opacity="0.1" d="M116.582 46.4935H53.1355V49.3198H116.582V46.4935Z" fill="black"/>
<path opacity="0.1" d="M116.582 41.39H53.1357V44.2163H116.582V41.39Z" fill="black"/>
<path opacity="0.2" d="M116.581 46.4935H98.9392V49.3198H116.581V46.4935Z" fill="black"/>
<path opacity="0.2" d="M116.581 41.39H98.9392V44.2162H116.581V41.39Z" fill="black"/>
<path opacity="0.3" d="M80.0817 32.3739H73.2727V39.1829H80.0817V32.3739Z" fill="white"/>
</g>
</svg>
