<svg width="17" height="20" viewBox="0 0 17 20" fill="none" xmlns="http://www.w3.org/2000/svg">
<path fill-rule="evenodd" clip-rule="evenodd" d="M7.65702 0.0272662C5.32828 0.303219 3.35468 1.46528 2.11774 3.28885C1.84438 3.69183 1.50356 4.33202 1.33628 4.75677C1.27275 4.91805 1.1613 5.14678 1.08863 5.26505C0.830709 5.68484 0.824853 5.72711 0.80845 7.29078C0.798825 8.20673 0.809252 8.80934 0.837888 8.98908C0.947096 9.67544 1.42319 10.2313 2.10563 10.4693C2.31057 10.5408 2.46221 10.5549 3.21531 10.5723C3.6951 10.5834 4.08761 10.5783 4.08761 10.5608C4.08761 10.5434 4.01634 10.4224 3.92924 10.2919C2.83291 8.64936 2.83656 6.21806 3.93766 4.62971L4.12058 4.3658H3.49822C2.99164 4.3658 2.87975 4.35594 2.89667 4.3129C2.94324 4.19463 3.28774 3.7025 3.51651 3.42745C4.42855 2.33091 5.70046 1.58958 7.21586 1.2712C7.57565 1.19563 7.75961 1.18249 8.47919 1.18104C9.20145 1.17956 9.38554 1.19199 9.77171 1.26831C10.636 1.43909 11.4094 1.75117 12.1373 2.22292C12.7249 2.6037 13.4352 3.29624 13.826 3.86937C13.9844 4.10169 14.114 4.30844 14.114 4.32877C14.114 4.35043 13.8641 4.3658 13.5125 4.3658C13.1816 4.3658 12.9109 4.37283 12.9109 4.38144C12.9109 4.39 12.9764 4.49118 13.0565 4.60625C13.4064 5.10905 13.6759 5.77684 13.8194 6.49663C13.924 7.02144 13.9143 8.01061 13.7994 8.53707C13.6487 9.22742 13.4317 9.75786 13.0862 10.2806C12.9898 10.4264 12.9109 10.5539 12.9109 10.564C12.9109 10.5981 14.2521 10.5802 14.553 10.5422C15.3406 10.4425 16.0151 9.82096 16.1595 9.06199C16.2148 8.77134 16.2115 6.10749 16.1556 5.84366C16.1314 5.72972 16.0566 5.53091 15.9893 5.40189C15.922 5.27287 15.8351 5.10572 15.7962 5.03046C15.7572 4.9552 15.6427 4.70008 15.5417 4.46354C15.1121 3.45794 14.3461 2.44555 13.4765 1.73428C12.4351 0.88257 11.2219 0.338094 9.83689 0.101005C9.29498 0.00822555 8.14583 -0.0306377 7.65702 0.0272662ZM8.13829 3.37514C7.65401 3.42123 7.0493 3.5881 6.63433 3.79016C6.2522 3.97623 5.93761 4.19904 5.58183 4.53556C5.00968 5.07683 4.62439 5.718 4.41997 6.46903C4.32953 6.80136 4.3167 6.92624 4.3167 7.47407C4.3167 8.02586 4.32921 8.14574 4.42278 8.49062C4.54209 8.93043 4.76127 9.40367 5.01498 9.76935C5.62643 10.6506 6.71634 11.3199 7.81464 11.4883C8.16873 11.5426 8.20418 11.5985 7.88526 11.5996C7.35033 11.6014 6.39273 11.7893 5.65174 12.0376C2.94348 12.9454 0.798865 15.2323 0.0725506 17.9869C-0.149996 18.8309 0.146024 19.5264 0.870133 19.8608L1.13984 19.9854L8.33882 19.997C13.6034 20.0054 15.6021 19.9966 15.7771 19.964C16.098 19.9043 16.3482 19.7746 16.5744 19.551C16.9752 19.1547 17.0942 18.6251 16.9259 17.9869C16.3782 15.9094 15.0047 14.0533 13.1405 12.8715C12.6631 12.5688 11.8132 12.1761 11.2389 11.9927C10.5364 11.7684 9.60925 11.5989 9.08518 11.5989C8.8089 11.5989 8.87644 11.5614 9.26875 11.4969C9.89187 11.3945 10.5433 11.1213 11.0188 10.7627C11.1441 10.6683 11.3818 10.4528 11.5473 10.2837L11.8481 9.97634L10.7452 9.95679C9.72872 9.93876 9.63134 9.93098 9.50329 9.85767C9.11109 9.63302 9.11109 9.06852 9.50329 8.84387C9.63487 8.76853 9.71837 8.76368 11.0737 8.7523L12.5051 8.74026L12.5479 8.61393C12.7207 8.10335 12.7581 7.27335 12.6344 6.69212C12.4543 5.84608 12.0956 5.21297 11.4268 4.56129C10.9499 4.09661 10.6809 3.91367 10.1235 3.67517C9.53994 3.42549 8.7939 3.3127 8.13829 3.37514Z" fill="#0A3A67" fill-opacity="0.4"/>
</svg>
