<svg width="160" height="117" viewBox="0 0 160 117" fill="none" xmlns="http://www.w3.org/2000/svg">
<path opacity="0.7" d="M72.8977 62.6324H8.71729V116.046H72.8977V62.6324Z" fill="#75013D"/>
<path d="M64.671 76.861H37.5535V110.55H64.671V76.861Z" fill="#75013D"/>
<path d="M33.4179 76.861H16.1577V104.888H33.4179V76.861Z" fill="#75013D"/>
<path opacity="0.7" d="M31.854 78.4254H17.7231V103.323H31.854V78.4254Z" fill="white"/>
<path opacity="0.5" d="M19.9338 103.323H25.8209L31.8546 80.7724V78.4254H26.5934L19.9338 103.323Z" fill="white"/>
<path opacity="0.7" d="M50.0981 79.0124H39.7029V110.55H50.0981V79.0124Z" fill="white"/>
<path opacity="0.7" d="M62.51 79.0124H52.1147V110.55H62.51V79.0124Z" fill="white"/>
<path opacity="0.7" d="M71.3585 38.2423H17.4951V63.3747H71.3585V38.2423Z" fill="#75013D"/>
<path d="M44.0873 46.0665H26.8271V53.6356H44.0873V46.0665Z" fill="#75013D"/>
<path opacity="0.7" d="M42.5232 47.6309H28.3923V52.0706H42.5232V47.6309Z" fill="white"/>
<path d="M62.9787 46.0665H45.7185V53.6356H62.9787V46.0665Z" fill="#75013D"/>
<path opacity="0.7" d="M61.4148 47.6309H47.2839V52.0706H61.4148V47.6309Z" fill="white"/>
<path opacity="0.5" d="M31.9231 52.0706H37.8101L38.9934 47.6309H33.1064L31.9231 52.0706Z" fill="white"/>
<path opacity="0.5" d="M50.8147 52.0707H56.7017L57.885 47.631H51.998L50.8147 52.0707Z" fill="white"/>
<path d="M86.773 69.8982H0.481934L8.02165 55.3664H84.6216L86.773 69.8982Z" fill="#75013D"/>
<path opacity="0.3" d="M86.773 69.8978H0.481934L8.02165 55.366H84.6216L86.773 69.8978Z" fill="black"/>
<path d="M74.1986 44.3451H11.8958L16.756 34.9669H72.81L74.1986 44.3451Z" fill="#75013D"/>
<path opacity="0.3" d="M74.1962 44.3446H11.8933L16.7535 34.9664H72.8075L74.1962 44.3446Z" fill="black"/>
<path opacity="0.5" d="M72.8964 110.55H0.481934V116.046H72.8964V110.55Z" fill="#75013D"/>
<path d="M69.3757 24.024V67.0521H149.213V24.024L109.294 2.8717L69.3757 24.024Z" fill="#75013D"/>
<path opacity="0.5" d="M69.3757 24.024V67.0521H149.213V24.024L109.294 2.8717L69.3757 24.024Z" fill="white"/>
<path d="M149.213 63.3751H69.3757V116.055H149.213V63.3751Z" fill="#75013D"/>
<path opacity="0.5" d="M149.213 63.3756H69.3757V116.056H149.213V63.3756Z" fill="white"/>
<path d="M139.308 54.8282H79.2744V28.4441L109.296 11.7511L139.308 28.4441V54.8282Z" fill="#75013D"/>
<path opacity="0.8" d="M139.307 54.8282H79.2725V28.4441L109.294 11.7511L139.307 28.4441V54.8282Z" fill="white"/>
<path d="M108.476 32.1407H91.2158V49.4009H108.476V32.1407Z" fill="#75013D"/>
<path opacity="0.7" d="M106.907 33.715H92.7766V47.8458H106.907V33.715Z" fill="white"/>
<path d="M127.368 32.1407H110.107V49.4009H127.368V32.1407Z" fill="#75013D"/>
<path opacity="0.7" d="M125.799 33.715H111.668V47.8458H125.799V33.715Z" fill="white"/>
<path d="M141.457 76.0881H77.1206V116.046H141.457V76.0881Z" fill="#CF9EB7"/>
<path opacity="0.5" d="M95.0269 47.8365H100.914L104.689 33.7057H98.8016L95.0269 47.8365Z" fill="white"/>
<path opacity="0.5" d="M113.918 47.836H119.805L123.59 33.7052H117.693L113.918 47.836Z" fill="white"/>
<path d="M156.819 32.62L109.293 6.74443L61.7662 32.62L59.1943 27.8869L109.293 0.612915L159.391 27.8869L156.819 32.62Z" fill="#75013D"/>
<path d="M152.441 69.898H66.1401L68.3013 59.6691H150.29L152.441 69.898Z" fill="#75013D"/>
<path d="M141.947 32.1408L109.295 14.3624L76.6327 32.1408L74.5791 28.3563L109.295 9.46301L144.011 28.3563L141.947 32.1408Z" fill="#75013D"/>
<path opacity="0.5" d="M89.6674 78.2491H79.2722V116.055H89.6674V78.2491Z" fill="#75013D"/>
<path opacity="0.5" d="M102.08 78.2496H91.6843V116.056H102.08V78.2496Z" fill="#75013D"/>
<path opacity="0.5" d="M114.487 78.2496H104.092V116.056H114.487V78.2496Z" fill="#75013D"/>
<path opacity="0.5" d="M126.899 78.2496H116.504V116.056H126.899V78.2496Z" fill="#75013D"/>
<path opacity="0.5" d="M139.306 78.2491H128.911V116.055H139.306V78.2491Z" fill="#75013D"/>
</svg>
