<svg width="22" height="20" viewBox="0 0 22 20" fill="none" xmlns="http://www.w3.org/2000/svg">
<path fill-rule="evenodd" clip-rule="evenodd" d="M9.18815 0.0267545C8.5034 0.134946 7.94513 0.428424 7.43063 0.950723C6.99241 1.39558 6.81399 1.67546 6.62387 2.21615C6.49954 2.56962 6.49072 2.63437 6.4896 3.19921C6.48858 3.71516 6.50314 3.85116 6.58879 4.12629C6.92997 5.22189 7.70045 5.99923 8.77974 6.33659C9.20892 6.47074 10.0673 6.4805 10.4929 6.35603C11.5689 6.04139 12.4642 5.15806 12.7471 4.13177L12.8197 3.86866H14.7828H16.7459V4.51651V5.16436H17.3883H18.0307V4.51535V3.86637L18.6624 3.87829L19.2942 3.89025L19.3055 5.17516L19.3169 6.46007H19.9591H20.6013L20.5902 4.52731L20.579 2.59454L16.703 2.58353L12.827 2.57252L12.7064 2.21641C12.265 0.913666 11.1543 0.0689081 9.79644 0.0034317C9.60234 -0.00594058 9.32863 0.00455469 9.18815 0.0267545ZM8.54418 7.74062C8.00694 7.82739 7.44241 8.06701 7.06398 8.36895C6.79112 8.58663 4.11142 11.3062 4.11142 11.3654C4.11142 11.3876 5.11326 12.4158 6.33778 13.6505L8.56414 15.8954L8.76976 15.6911L8.97542 15.4868H12.9357H16.896L19.4157 12.9456L21.9355 10.4043L21.742 10.2325C21.3256 9.8629 20.7422 9.65615 20.1158 9.65615C19.6578 9.65615 19.3106 9.7402 18.9087 9.94838C18.647 10.0839 18.4319 10.2809 17.2155 11.4996L15.8222 12.8954H13.6929H11.5636V12.2476V11.5997H13.1405C14.9778 11.5997 15.0209 11.5931 15.3887 11.2541C15.6876 10.9786 15.8157 10.6927 15.816 10.3002C15.8164 9.80468 15.5326 9.35278 15.0798 9.1278C14.8869 9.03192 14.8483 9.02963 13.2323 9.01724L11.5818 9.00454L11.213 8.64334C10.9176 8.35409 10.7643 8.24266 10.4437 8.08398C10.2234 7.97501 9.92754 7.85529 9.78621 7.81793C9.52581 7.74908 8.77952 7.70261 8.54418 7.74062ZM1.35959 13.187L0 14.5586L2.69816 17.2793L5.39632 20L6.75604 18.6288L8.11576 17.2576L5.41748 14.5365L2.71919 11.8154L1.35959 13.187Z" fill="#0A3A67" fill-opacity="0.4"/>
</svg>
