<svg width="22" height="20" viewBox="0 0 22 20" fill="none" xmlns="http://www.w3.org/2000/svg">
<path fill-rule="evenodd" clip-rule="evenodd" d="M11.2844 0.00915153C11.1471 0.0341913 10.8476 0.102927 10.6537 0.153912L10.4967 0.195179L10.7393 0.454595C11.769 1.55531 12.2796 2.81529 12.2844 4.2678C12.288 5.37519 12.0098 6.3622 11.4503 7.22657C11.3432 7.39192 11.29 7.51522 11.305 7.56267C11.3569 7.72633 12.0596 7.71447 12.7617 7.53812C13.9927 7.22887 15.0036 6.28445 15.4228 5.0519C15.5664 4.62976 15.6136 4.32513 15.6136 3.82137C15.6136 2.33583 14.7863 1.01832 13.4465 0.370333C12.9225 0.116847 12.5241 0.0226186 11.9021 0.00499198C11.619 -0.00303886 11.341 -0.00118559 11.2844 0.00915153ZM6.25993 0.0518591C6.18065 0.0620727 5.9595 0.108775 5.76849 0.155683C4.21747 0.536304 3.02396 1.73735 2.62336 3.32057C2.55051 3.60853 2.5354 3.78393 2.53811 4.30898C2.54104 4.86109 2.55619 5.00297 2.65038 5.35917C3.1457 7.23254 4.84927 8.55091 6.77473 8.55091C8.38213 8.55091 9.85812 7.64388 10.5797 6.21262C11.3059 4.77251 11.1461 3.01322 10.1718 1.72025C9.58692 0.944064 8.76296 0.403157 7.78373 0.152512C7.43824 0.0640495 6.59661 0.00849258 6.25993 0.0518591ZM14.9291 7.83724C14.2341 8.3905 13.3054 8.77874 12.3856 8.90073L12.1896 8.92671L12.5053 9.27167C12.7749 9.56622 13.0736 9.95277 13.3499 10.3644C13.4109 10.4553 13.4276 10.4602 13.5084 10.4116C14.0244 10.1012 14.7049 9.84075 15.3779 9.69611C16.026 9.55687 17.2775 9.57466 17.8052 9.7307C17.9323 9.76826 17.8307 9.62997 17.3938 9.1704C16.9543 8.70823 16.5035 8.33816 15.998 8.02467C15.7048 7.84276 15.2598 7.60035 15.2291 7.6057C15.2226 7.60686 15.0877 7.71101 14.9291 7.83724ZM9.57523 9.048C8.65304 9.61395 7.37708 9.90285 6.2874 9.79236C5.45899 9.70838 4.67967 9.45971 4.01711 9.06802C3.84253 8.96481 3.67446 8.88038 3.64357 8.88038C3.51734 8.88038 2.67921 9.49555 2.27507 9.88481C1.0013 11.1117 0.232194 12.7638 0.0422545 14.6814C0.0186151 14.9197 0 16.1867 0 17.5539V20L6.43496 19.9992L12.8699 19.9984L12.5941 19.7505C11.6897 18.9374 11.0517 17.817 10.7825 16.5689C10.6546 15.9759 10.655 14.8518 10.7834 14.2635C11.0074 13.2368 11.501 12.2535 12.1451 11.551C12.2833 11.4003 12.3963 11.2601 12.3963 11.2396C12.3963 11.1735 11.9122 10.4902 11.6665 10.2093C11.2684 9.75438 10.6892 9.29222 10.09 8.95126L9.9047 8.84583L9.57523 9.048ZM15.77 10.8965C14.0837 11.2026 12.7543 12.3257 12.1774 13.9316C11.8299 14.8989 11.8661 16.1653 12.2693 17.1445C12.7049 18.2024 13.4787 19.0235 14.516 19.5288C16.2337 20.3655 18.2484 20.0614 19.6277 18.757C20.7443 17.7011 21.266 16.1897 21.0255 14.7069C20.7327 12.9014 19.4114 11.4529 17.6267 10.9808C17.3496 10.9075 17.1392 10.8855 16.6177 10.8752C16.2552 10.8681 15.8738 10.8777 15.77 10.8965ZM17.1324 13.7813V14.8108H18.162H19.1916V15.4286V16.0464H18.162H17.1324V17.076V18.1055H16.5154H15.8984L15.8873 17.0862L15.8763 16.0669L14.857 16.056L13.8377 16.0449V15.4286V14.8123L14.857 14.8012L15.8763 14.7903L15.8873 13.771L15.8984 12.7517H16.5154H17.1324V13.7813Z" fill="#0A3A67" fill-opacity="0.4"/>
</svg>
