<svg width="169" height="170" viewBox="0 0 169 170" fill="none" xmlns="http://www.w3.org/2000/svg">
<mask id="mask0_27_3197" style="mask-type:alpha" maskUnits="userSpaceOnUse" x="0" y="0" width="169" height="170">
<rect x="0.348389" y="0.996216" width="168.119" height="168.119" rx="84.0594" fill="#C4C4C4"/>
</mask>
<g mask="url(#mask0_27_3197)">
<path opacity="0.7" d="M77.8977 115.632H13.7173V169.046H77.8977V115.632Z" fill="#75013D"/>
<path d="M69.671 129.861H42.5535V163.55H69.671V129.861Z" fill="#75013D"/>
<path d="M38.4179 129.861H21.1577V157.888H38.4179V129.861Z" fill="#75013D"/>
<path opacity="0.7" d="M36.854 131.425H22.7231V156.323H36.854V131.425Z" fill="white"/>
<path opacity="0.5" d="M24.9338 156.323H30.8209L36.8546 133.772V131.425H31.5934L24.9338 156.323Z" fill="white"/>
<path opacity="0.7" d="M55.0981 132.012H44.7029V163.55H55.0981V132.012Z" fill="white"/>
<path opacity="0.7" d="M67.51 132.012H57.1147V163.55H67.51V132.012Z" fill="white"/>
<path opacity="0.7" d="M76.3585 91.2423H22.4951V116.375H76.3585V91.2423Z" fill="#75013D"/>
<path d="M49.0873 99.0665H31.8271V106.636H49.0873V99.0665Z" fill="#75013D"/>
<path opacity="0.7" d="M47.5232 100.631H33.3923V105.071H47.5232V100.631Z" fill="white"/>
<path d="M67.9787 99.0665H50.7185V106.636H67.9787V99.0665Z" fill="#75013D"/>
<path opacity="0.7" d="M66.4148 100.631H52.2839V105.071H66.4148V100.631Z" fill="white"/>
<path opacity="0.5" d="M36.9231 105.071H42.8101L43.9934 100.631H38.1064L36.9231 105.071Z" fill="white"/>
<path opacity="0.5" d="M55.8147 105.071H61.7017L62.885 100.631H56.998L55.8147 105.071Z" fill="white"/>
<path d="M91.773 122.898H5.48193L13.0216 108.366H89.6216L91.773 122.898Z" fill="#75013D"/>
<path opacity="0.3" d="M91.773 122.898H5.48193L13.0216 108.366H89.6216L91.773 122.898Z" fill="black"/>
<path d="M79.1986 97.3451H16.8958L21.756 87.9669H77.81L79.1986 97.3451Z" fill="#75013D"/>
<path opacity="0.3" d="M79.1962 97.3446H16.8933L21.7535 87.9664H77.8075L79.1962 97.3446Z" fill="black"/>
<path opacity="0.5" d="M77.8964 163.55H5.48193V169.046H77.8964V163.55Z" fill="#75013D"/>
<path d="M74.3757 77.024V120.052H154.213V77.024L114.294 55.8717L74.3757 77.024Z" fill="#75013D"/>
<path opacity="0.5" d="M74.3757 77.024V120.052H154.213V77.024L114.294 55.8717L74.3757 77.024Z" fill="white"/>
<path d="M154.213 116.375H74.3757V169.055H154.213V116.375Z" fill="#75013D"/>
<path opacity="0.5" d="M154.213 116.376H74.3757V169.056H154.213V116.376Z" fill="white"/>
<path d="M144.308 107.828H84.2744V81.4441L114.296 64.7511L144.308 81.4441V107.828Z" fill="#75013D"/>
<path opacity="0.8" d="M144.307 107.828H84.2725V81.4441L114.294 64.7511L144.307 81.4441V107.828Z" fill="white"/>
<path d="M113.476 85.1407H96.2158V102.401H113.476V85.1407Z" fill="#75013D"/>
<path opacity="0.7" d="M111.907 86.715H97.7766V100.846H111.907V86.715Z" fill="white"/>
<path d="M132.368 85.1407H115.107V102.401H132.368V85.1407Z" fill="#75013D"/>
<path opacity="0.7" d="M130.799 86.715H116.668V100.846H130.799V86.715Z" fill="white"/>
<path d="M146.457 129.088H82.1206V169.046H146.457V129.088Z" fill="#CF9EB7"/>
<path opacity="0.5" d="M100.027 100.837H105.914L109.689 86.7057H103.802L100.027 100.837Z" fill="white"/>
<path opacity="0.5" d="M118.918 100.836H124.805L128.59 86.7052H122.693L118.918 100.836Z" fill="white"/>
<path d="M161.819 85.62L114.293 59.7444L66.7662 85.62L64.1943 80.8869L114.293 53.6129L164.391 80.8869L161.819 85.62Z" fill="#75013D"/>
<path d="M157.441 122.898H71.1401L73.3013 112.669H155.29L157.441 122.898Z" fill="#75013D"/>
<path d="M146.947 85.1408L114.295 67.3624L81.6327 85.1408L79.5791 81.3563L114.295 62.463L149.011 81.3563L146.947 85.1408Z" fill="#75013D"/>
<path opacity="0.5" d="M94.6674 131.249H84.2722V169.055H94.6674V131.249Z" fill="#75013D"/>
<path opacity="0.5" d="M107.08 131.25H96.6843V169.056H107.08V131.25Z" fill="#75013D"/>
<path opacity="0.5" d="M119.487 131.25H109.092V169.056H119.487V131.25Z" fill="#75013D"/>
<path opacity="0.5" d="M131.899 131.25H121.504V169.056H131.899V131.25Z" fill="#75013D"/>
<path opacity="0.5" d="M144.306 131.249H133.911V169.055H144.306V131.249Z" fill="#75013D"/>
</g>
</svg>
