<svg width="23" height="22" viewBox="0 0 23 22" fill="none" xmlns="http://www.w3.org/2000/svg">
<path fill-rule="evenodd" clip-rule="evenodd" d="M2.07869 0.0870941C1.31145 0.288071 0.64554 0.823792 0.305532 1.51356C-0.0212754 2.17653 0.00029326 1.50648 0.00029326 11C0.00029326 18.3153 0.00922267 19.5623 0.0634462 19.8216C0.273136 20.8238 1.08032 21.6552 2.09564 21.9149C2.41598 21.9969 2.59021 22 6.81292 22H11.1975L11.417 21.8906C11.7272 21.7361 11.8748 21.5036 11.8955 21.1373C11.9151 20.7886 11.7948 20.5326 11.5202 20.3392L11.3365 20.2098L6.92943 20.1882L2.52231 20.1667L2.34976 20.0738C2.13317 19.9572 2.00587 19.8219 1.92046 19.6174C1.86098 19.4751 1.85369 18.5363 1.85369 11C1.85369 3.46375 1.86098 2.52491 1.92046 2.38256C2.00587 2.17809 2.13317 2.04276 2.34976 1.92621L2.52231 1.83333L6.92943 1.81176L11.3365 1.7902L11.5202 1.66078C11.7948 1.46736 11.9151 1.21138 11.8955 0.862745C11.8748 0.49638 11.7272 0.263914 11.417 0.109353L11.1975 0L6.79523 0.00237255C2.60604 0.00461568 2.37767 0.00875687 2.07869 0.0870941ZM15.3405 4.61444C14.7552 4.80131 14.4934 5.50591 14.8312 5.98499C14.8943 6.07446 15.8291 7.02055 16.9086 8.08746C17.9881 9.15437 18.8778 10.0424 18.8857 10.0607C18.8936 10.0791 16.4567 10.0941 13.4703 10.0941H8.0406L7.85063 10.1912C7.46904 10.3862 7.26521 10.8146 7.36844 11.2049C7.43841 11.4694 7.61212 11.687 7.85063 11.8088L8.0406 11.9059H13.4703C16.4567 11.9059 18.8936 11.9209 18.8857 11.9393C18.8778 11.9576 17.9881 12.8456 16.9086 13.9125C15.8291 14.9795 14.8943 15.9255 14.8312 16.015C14.3056 16.7605 15.197 17.7362 16.0166 17.3124C16.1896 17.2229 21.8969 11.585 21.9902 11.4114C22.0844 11.236 22.0844 10.764 21.9902 10.5886C21.8946 10.4107 16.1874 4.7759 16.0098 4.68406C15.8383 4.59537 15.5078 4.56099 15.3405 4.61444Z" fill="#75013D"/>
</svg>
